{"title":"Superhero Movie - AVM","uid":5045262,"size":217761768,"categoryP":"video","categoryS":"handheld","magnet":"?xt=urn:btih:5b266b3beca27b2c66735b244308fb665dd34224&amp;dn=Superhero+Movie+-+AVM&amp;tr=udp%3A%2F%2Ftracker.openbittorrent.com%3A80&amp;tr=udp%3A%2F%2Fopen.demonii.com%3A1337&amp;tr=udp%3A%2F%2Ftracker.coppersurfer.tk%3A6969&amp;tr=udp%3A%2F%2Fexodus.desync.com%3A6969","seeders":0,"leechers":0,"uploader":"AVIDM","files":1,"time":1249593890,"description":"AVIDMobile - http://www.avidmobile.com.ar (Mobile media)\n\nVideo\nID                               : 1\nFormat                           : MPEG-4 Visual\nFormat profile                   : Advanced Simple@L5\nFormat settings, BVOP            : Yes\nFormat settings, QPel            : No\nFormat settings, GMC             : No warppoints\nFormat settings, Matrix          : Default (H.263)\nCodec ID                         : 20\nDuration                         : 1h 17mn\nBit rate mode                    : Variable\nBit rate                         : 307 Kbps\nMaximum bit rate                 : 1 099 Kbps\nWidth                            : 320 pixels\nHeight                           : 240 pixels\nDisplay aspect ratio             : 4/3\nFrame rate mode                  : Variable\nFrame rate                       : 23.976 fps\nMinimum frame rate               : 23.974 fps\nMaximum frame rate               : 23.981 fps\nResolution                       : 24 bits\nColorimetry                      : 4:2:0\nScan type                        : Progressive\nBits/(Pixel*Frame)               : 0.167\nStream size                      : 171 MiB (82%)\n\nAudio\nID                               : 2\nFormat                           : AAC\nFormat/Info                      : Advanced Audio Codec\nFormat version                   : Version 4\nFormat profile                   : LC\nFormat settings, SBR             : No\nCodec ID                         : 40\nDuration                         : 1h 17mn\nBit rate mode                    : Variable\nBit rate                         : 63.1 Kbps\nMaximum bit rate                 : 118 Kbps\nChannel(s)                       : 2 channels\nChannel positions                : L R\nSampling rate                    : 22.05 KHz\nResolution                       : 16 bits\nStream size                      : 35.1 MiB (17%)","torrent":{"xt":"urn:btih:5b266b3beca27b2c66735b244308fb665dd34224","amp;dn":"Superhero+Movie+-+AVM","amp;tr":["udp%3A%2F%2Ftracker.openbittorrent.com%3A80","udp%3A%2F%2Fopen.demonii.com%3A1337","udp%3A%2F%2Ftracker.coppersurfer.tk%3A6969","udp%3A%2F%2Fexodus.desync.com%3A6969"],"infoHash":"5b266b3beca27b2c66735b244308fb665dd34224","infoHashBuffer":{"type":"Buffer","data":[91,38,107,59,236,162,123,44,102,115,91,36,67,8,251,102,93,211,66,36]},"announce":[],"urlList":[]}}